# xmcd
#
# Track frame offsets: 
#        150
#        20257
#        36052
#        51970
#        65705
#        80775
#        99150
#        115147
#        136335
#        147970
#        167455
#
# Disc length: 2513 seconds
#
# Revision: 5
# Processed by: cddbd v1.5.2PL0 Copyright (c) Steve Scherf et al.
# Submitted via: ExactAudioCopy v0.99pb5
#
DISCID=8f09cf0b
DTITLE=Robert Bradley's Blackwater Surprise - Robert Bradley's Blackwa
DTITLE=ter Surprise
DYEAR=1996
DGENRE=Alt. Rock
TTITLE0=Bellybone
TTITLE1=Comin' Down
TTITLE2=California
TTITLE3=Shake It Off
TTITLE4=Once Upon a Time
TTITLE5=Trouble Brother
TTITLE6=Way Back
TTITLE7=Governor
TTITLE8=Burn
TTITLE9=After Your Love
TTITLE10=For the Night
EXTD=YEAR: 1996
EXTT0=
EXTT1=
EXTT2=
EXTT3=
EXTT4=
EXTT5=
EXTT6=
EXTT7=
EXTT8=
EXTT9=
EXTT10=
PLAYORDER=
